# xmcd
#
# Track frame offsets:
#	150
#	15182
#	40618
#	55253
#	73913
#	95778
#	113336
#	126032
#	142431
#	160142
#	178283
#	191571
#	211173
#	225611
#
# Disc length: 3330 seconds
#
# Revision: 0
# Processed by: cddbd v1.5.2PL0 Copyright (c) Steve Scherf et al.
# Submitted via: EasyCDDAExtractor 16.0.6.1
#
DISCID=c20d000e
DTITLE=Σκουλάς Βασίλης - Στο ξέσπασμα του φεγγαριού-Β. Σκουλάς 1
DYEAR=2009
DGENRE=Έντεχνη
TTITLE0=Σκουλάς Βασίλης - Ήλιος θεός [Μιχάλης Νικολούδης-Πάρις Μήτσου]
TTITLE1=Σκουλάς Βασίλης - Πικραμένος αναχωρητής [Παν. Κωνσταντόπουλος-Νικ. Βρε
TTITLE1=ττάκος]
TTITLE2=Σκουλάς Βασίλης-Νέγκα Γιώτα - Στο ξέσπασμα του φεγγαριού [Βαγγ. Βέττας
TTITLE2=Κώστας Φασουλάς]
TTITLE3=Σκουλάς Βασίλης-Θαλασσινός Παντελής - Τ' άγρια πουλιά [Γιάννης Νικολάο
TTITLE3=υ-Κώστας Φασουλάς]
TTITLE4=Σκουλάς Βασίλης - Το καπηελιό [Δημήτρης Αποστολάκης]
TTITLE5=Σκουλάς Βασίλης-Πασχαλίδης Μίλτος - Μικρό μου [Μάριος Τόκας-Κώστας Φασ
TTITLE5=ουλάς]
TTITLE6=Σκουλάς Βασίλης - Στη Σέριφο ήσουν πουλί [Παντ. Θαλασσινός-Άκος Δασκαλ
TTITLE6=όπουλος]
TTITLE7=Σκουλάς Βασίλης - Αχ πουλάκι της ερήμου [Βασ. Σκουλάς-Κώστας Φασουλάς]
TTITLE8=Σκουλάς Βασίλης-Νέγκα Γιώτα - Αν μ' αγαπάς, μη μ' αγαπάς [Χρ. Νικολόπο
TTITLE8=υλος-Ηλίας Κατσούλης]
TTITLE9=Σκουλάς Βασίλης - Θα σε φιλέψω στεναγμέ [Κώστας Λειβαδάς-Κώστας Φασουλ
TTITLE9=άς]
TTITLE10=Σκουλάς Βασίλης-Ανδρεάτος Γεράσιμος - Όσοι τα μαύρα φόρεσαν [Γερ. Ανδ
TTITLE10=ρεάτος-Ηλίας Κατσούλης]
TTITLE11=Σκουλάς Βασίλης - Ξελησμονίστρα [Βασ. Σκουλάς-Κώστας Φασουλάς]
TTITLE12=Σκουλάς Βασίλης - Ξενητεμένο μου πουλί [Χρήστος Λεοντής-Γιώργος Αρμέν
TTITLE12=ης]
TTITLE13=Σκουλάς Βασίλης - Άσπρο μαντήλι ανέμιζε [Μάριος Τόκας-Κώστας Φασουλάς
TTITLE13=]
EXTD=
EXTT0=
EXTT1=
EXTT2=
EXTT3=
EXTT4=
EXTT5=
EXTT6=
EXTT7=
EXTT8=
EXTT9=
EXTT10=
EXTT11=
EXTT12=
EXTT13=
PLAYORDER=
